<svg width="89" height="177" viewBox="0 0 89 177" fill="none" xmlns="http://www.w3.org/2000/svg">
<path d="M20.9191 46.932C12.2991 46.932 5.31104 39.944 5.31104 31.324C5.31104 22.7037 12.2991 15.716 20.9191 15.716" fill="#F9B233"/>
<path d="M72.9462 163.993C72.9462 163.993 45.6325 147.427 39.1284 140.581C33.2759 134.42 23.5204 111.966 23.5204 111.966V27.4217C23.5204 13.7732 34.5849 2.70862 48.2334 2.70862C61.882 2.70862 72.9462 13.7728 72.9462 27.4217V163.993Z" fill="#BE1622"/>
<path d="M72.9462 163.993C72.9462 163.993 45.6325 147.427 39.1284 140.581C33.276 134.42 23.5204 111.966 23.5204 111.966L20.9191 78.1481H72.9462" fill="#BE1622"/>
<path d="M41.7294 145.784L23.5197 117.169V20.9183C23.5197 10.8616 31.6722 2.70898 41.729 2.70898L41.7294 145.784Z" fill="#CB454E"/>
<path d="M85.9529 143.182L46.9324 109.365V82.0501C46.9324 71.2749 55.6676 62.5401 66.4425 62.5401C77.2177 62.5401 85.9525 71.2753 85.9525 82.0501L85.9529 143.182Z" fill="#3AAA35"/>
<path d="M46.932 41.729C54.1154 41.729 59.9387 35.9057 59.9387 28.7223C59.9387 21.5389 54.1154 15.7156 46.932 15.7156C39.7486 15.7156 33.9254 21.5389 33.9254 28.7223C33.9254 35.9057 39.7486 41.729 46.932 41.729Z" fill="#EEEEEE"/>
<path d="M85.9529 143.182L70.3448 130.176V62.5401L85.9529 75.5471V143.182Z" fill="#F9B233"/>
<path d="M46.9321 13.0067C38.2666 13.0067 31.2164 20.0569 31.2164 28.7224C31.2164 37.3878 38.2666 44.438 46.9321 44.438C55.5979 44.438 62.6481 37.3878 62.6481 28.7224C62.6481 20.0569 55.5983 13.0067 46.9321 13.0067ZM46.9321 39.0204C42.1914 39.0204 38.1911 35.7993 36.9985 31.4317H41.7294V26.0138H36.9985C38.1911 21.6458 42.1914 18.425 46.9321 18.425C52.6105 18.425 57.2302 23.0447 57.2302 28.7227C57.2302 34.4007 52.6105 39.0204 46.9321 39.0204Z" fill="#1D1D1B"/>
<path d="M57.4454 109.365H52.0275V119.77H57.4454V109.365Z" fill="#1D1D1B"/>
<path d="M65.2498 117.169H59.8318V127.574H65.2498V117.169Z" fill="#1D1D1B"/>
<path d="M73.0538 124.973H67.6359V135.378H73.0538V124.973Z" fill="#1D1D1B"/>
<path d="M80.8575 130.176H75.4395V140.581H80.8575V130.176Z" fill="#1D1D1B"/>
<path d="M49.641 148.385H44.2231V166.594H49.641V148.385Z" fill="#1D1D1B"/>
<path d="M62.6477 177H57.2298C57.2298 171.322 52.6101 166.702 46.9317 166.702C41.2534 166.702 36.634 171.322 36.634 177H31.2161C31.2161 168.334 38.2663 161.284 46.9317 161.284C55.5983 161.284 62.6477 168.334 62.6477 177Z" fill="#1D1D1B"/>
<path d="M75.6551 61.839V28.7227C75.6551 12.885 62.7702 0 46.9321 0C35.8177 0 26.1647 6.34983 21.3915 15.608H18.317C8.21686 15.608 0 23.8252 0 33.925V36.634H5.44143C6.57558 43.1319 11.7118 48.2678 18.2094 49.4023V92.7155C18.2094 120.019 33.0712 145.154 56.9946 158.312L75.6548 168.575V143.182H70.2368V159.412L59.6054 153.564C37.4135 141.359 23.6273 118.043 23.6273 92.7155V80.8574H44.256C44.235 81.2526 44.2231 81.6503 44.2231 82.0505V114.568H49.641V82.0505C49.641 72.7865 57.1781 65.2494 66.4425 65.2494C75.7068 65.2494 83.2439 72.7865 83.2439 82.0505V145.784H88.6618V82.0505C88.6618 73.0841 83.3204 65.3473 75.6551 61.839ZM18.317 21.026H19.2651C18.5821 23.4774 18.2094 26.0564 18.2094 28.7223V31.216H5.70401C6.95231 25.4001 12.134 21.026 18.317 21.026ZM10.9854 36.6344H18.2097V43.859C14.7058 42.9022 11.9415 40.1383 10.9854 36.6344ZM45.2276 75.4395H23.6277V28.7227C23.6277 15.8724 34.0825 5.41795 46.9328 5.41795C59.7831 5.41795 70.2375 15.8724 70.2375 28.7227V60.1623C69.0033 59.9489 67.737 59.8315 66.4428 59.8315C56.4922 59.8311 48.0485 66.406 45.2276 75.4395Z" fill="#1D1D1B"/>
</svg>
